<svg width="40" height="36" viewBox="0 0 40 36" fill="none" xmlns="http://www.w3.org/2000/svg">
<path fill-rule="evenodd" clip-rule="evenodd" d="M23.249 12.7342L16.9554 25.007C16.4693 25.9572 15.1563 25.9557 14.6716 25.0055L8.43862 12.7838C7.98354 11.8919 8.60769 10.8191 9.58124 10.8191H22.1388C23.087 10.8191 23.6928 11.8657 23.249 12.7342M7.21146 0.575195C4.95582 0.575195 3.50888 3.06391 4.56273 5.13079L7.47775 10.8454H2.19437C0.731935 10.8454 -0.204983 12.4568 0.476924 13.7968L9.8447 32.1666C10.5745 33.5941 12.547 33.5956 13.2782 32.1695L15.8227 27.2067L19.0166 33.4686C20.1395 35.6712 23.1827 35.6741 24.3113 33.4744L38.9047 5.01402C39.9374 3.00261 38.5299 0.575195 36.3292 0.575195H7.21146Z" fill="#F71963"/>
</svg>
